<?xml version="1.0" encoding="UTF-8" standalone="no"?>
<!-- Created with Inkscape (http://www.inkscape.org/) -->

<svg
   width="56.209915"
   height="17.107847"
   viewBox="0 0 14.872207 4.5264514"
   version="1.1"
   id="svg1"
   xml:space="preserve"
   inkscape:version="1.4.4 (dcaf3e7d9e, 2026-05-05)"
   sodipodi:docname="sanctuaryos.svg"
   xmlns:inkscape="http://www.inkscape.org/namespaces/inkscape"
   xmlns:sodipodi="http://sodipodi.sourceforge.net/DTD/sodipodi-0.dtd"
   xmlns="http://www.w3.org/2000/svg"
   xmlns:svg="http://www.w3.org/2000/svg"><sodipodi:namedview
     id="namedview1"
     pagecolor="#ffffff"
     bordercolor="#000000"
     borderopacity="0.25"
     inkscape:showpageshadow="2"
     inkscape:pageopacity="0.0"
     inkscape:pagecheckerboard="0"
     inkscape:deskcolor="#d1d1d1"
     inkscape:document-units="mm"
     showguides="true"
     inkscape:zoom="4"
     inkscape:cx="186.125"
     inkscape:cy="348.625"
     inkscape:window-width="1878"
     inkscape:window-height="1038"
     inkscape:window-x="0"
     inkscape:window-y="0"
     inkscape:window-maximized="1"
     inkscape:current-layer="layer1"
     inkscape:clip-to-page="false"><sodipodi:guide
       position="51.294566,-75.509774"
       orientation="0,1"
       id="guide73"
       inkscape:locked="false" /><inkscape:page
       x="0"
       y="0"
       width="14.872207"
       height="4.5264516"
       id="page1"
       margin="0"
       bleed="0" /></sodipodi:namedview><defs
     id="defs1"><style
       type="text/css"
       id="current-color-scheme">
      .ColorScheme-Text {
        color:#dedede;
      }
      </style><style
       id="current-color-scheme-8"
       type="text/css">
   .ColorScheme-Text { color:#eeeeee; } .ColorScheme-Highlight { color:#424242; }
  </style><style
       id="current-color-scheme-9"
       type="text/css">.ColorScheme-Text { color:#dedede; } .ColorScheme-Highlight { color:#5294e2; }</style></defs><g
     inkscape:label="Layer 1"
     inkscape:groupmode="layer"
     id="layer1"
     transform="translate(-62.310904,-46.652678)"><path
       id="rect68"
       style="opacity:1;fill:#ffffff;fill-opacity:1;stroke:none;stroke-width:1.05833;stroke-linecap:square;stroke-miterlimit:32;stroke-dasharray:none;stroke-opacity:1"
       d="m 63.137125,46.652694 c -0.457725,0 -0.826218,0.368492 -0.826218,0.826217 v 2.874009 c 0,0.457724 0.368493,0.826218 0.826218,0.826218 h 8.142757 c 0.457726,0 0.826218,-0.368494 0.826218,-0.826218 v -2.874009 c 0,-0.457725 -0.368492,-0.826217 -0.826218,-0.826217 z m 0.572866,0.406653 h 0.613206 l 0.468783,3.816413 h -0.452645 l -0.08229,-0.757634 v 0.01047 h -0.514773 l -0.08231,0.747143 H 63.2404 Z m 1.300646,0 h 0.452643 v 3.270982 h 0.744726 v 0.545431 h -1.197369 z m 1.415219,0 h 0.667267 c 0.452743,0 0.674529,0.332691 0.674529,0.943211 v 0.375994 c 0,0.61052 -0.221786,0.943211 -0.674529,0.943211 h -0.213815 v 1.553997 h -0.453452 z m 1.588693,0 h 0.453452 v 1.553998 h 0.484919 v -1.553998 h 0.453451 V 50.87576 H 68.95292 v -1.717789 h -0.484919 v 1.717789 h -0.453452 z m 2.078454,0 h 0.614015 l 0.468781,3.816413 h -0.452644 l -0.08231,-0.757634 v 0.01047 h -0.514772 l -0.08231,0.747143 h -0.419564 z m -3.213695,0.545433 v 1.172355 h 0.213815 c 0.144051,0 0.221885,-0.08732 0.221885,-0.359853 v -0.452645 c 0,-0.272554 -0.07783,-0.359857 -0.221885,-0.359857 z m -2.885305,0.120228 -0.197681,1.885615 h 0.407461 l -0.201712,-1.885618 z m 6.383011,0 -0.196871,1.885615 h 0.407461 l -0.201713,-1.885618 z" /><text
       xml:space="preserve"
       style="font-style:normal;font-variant:normal;font-weight:normal;font-stretch:normal;font-size:8.14112px;font-family:'Bebas Neue';-inkscape-font-specification:'Bebas Neue';letter-spacing:0px;writing-mode:lr-tb;direction:ltr;text-orientation:upright;white-space:pre;opacity:1;fill:#ffffff;fill-opacity:1;stroke:none;stroke-width:1.05833;stroke-linecap:square;stroke-miterlimit:32;stroke-dasharray:none;stroke-opacity:1"
       x="72.127472"
       y="51.097736"
       id="text69"><tspan
         sodipodi:role="line"
         id="tspan69"
         style="font-style:normal;font-variant:normal;font-weight:normal;font-stretch:normal;font-family:Serif;-inkscape-font-specification:Serif;fill:#ffffff;fill-opacity:1;stroke-width:1.05833"
         x="72.127472"
         y="51.097736">α</tspan></text></g></svg>
